<svg width="80" height="63" viewBox="0 0 80 63" fill="none" xmlns="http://www.w3.org/2000/svg">
<path d="M26.1072 29.4618C29.2152 30.8206 31.6395 32.8588 33.38 35.5765C35.1204 38.2941 35.9907 41.5059 35.9907 45.2118C35.9907 50.5235 34.3124 54.8471 30.9557 58.1823C27.5991 61.3941 23.31 63 18.0886 63C12.8671 63 8.51593 61.3323 5.03497 57.997C1.67832 54.6618 0 50.4 0 45.2118C0 42.7412 0.3108 40.2706 0.932401 37.8C1.554 35.3294 2.92152 31.6235 5.03497 26.6823L15.8508 0H34.3124L26.1072 29.4618ZM70.1165 29.4618C73.2246 30.8206 75.6488 32.8588 77.3893 35.5765C79.1298 38.2941 80 41.5059 80 45.2118C80 50.5235 78.3217 54.8471 74.965 58.1823C71.6084 61.3941 67.3193 63 62.0979 63C56.8765 63 52.5253 61.3323 49.0443 57.997C45.6876 54.6618 44.0093 50.4 44.0093 45.2118C44.0093 42.7412 44.3201 40.2706 44.9417 37.8C45.5633 35.3294 46.9308 31.6235 49.0443 26.6823L59.8601 0H78.3217L70.1165 29.4618Z" fill="#2B5865"/>
</svg>
