<svg width="285" height="200" viewBox="0 0 285 200" fill="none" xmlns="http://www.w3.org/2000/svg">
<path fill-rule="evenodd" clip-rule="evenodd" d="M175.453 3.56223C176.101 2.76154 175.603 1.60641 174.536 1.46324C167.356 0.499045 160.014 0 152.547 0C113.284 0 77.4858 13.7971 50.45 36.4631C49.3171 37.4127 50.393 39.0523 51.8352 38.5912C63.4857 34.8676 75.8802 31.1732 86.4867 28.6053C101.992 24.8511 122.054 21.476 138.133 19.049C146.195 17.8321 153.297 16.8474 158.385 16.1667C160.929 15.8263 162.971 15.5618 164.379 15.3821C165.083 15.2923 165.628 15.2236 165.999 15.1773L166.123 15.1618C166.235 15.148 166.341 15.1093 166.433 15.0491L166.441 15.0444C166.51 14.999 166.571 14.9425 166.62 14.878C169.288 11.3632 171.591 8.38501 173.697 5.74767C174.313 4.97671 174.899 4.2474 175.453 3.56223ZM31.7641 55.543C31.5126 55.63 31.2925 55.7812 31.1299 55.9796C25.7884 62.5008 21.0403 69.4653 16.9605 76.8035C16.3726 77.8607 17.4821 79.0212 18.6879 78.6223C32.7493 73.9711 49.1249 68.8851 62.6098 65.6202C78.1151 61.8661 98.1774 58.491 114.256 56.0639C122.318 54.8472 129.42 53.8623 134.508 53.1817C137.052 52.8414 139.094 52.5767 140.502 52.3971C140.572 52.3883 140.678 52.3462 140.795 52.2928C141.199 52.1088 141.571 51.7963 141.789 51.43C146.554 43.4334 151.313 36.0483 156.164 29.1342C156.336 28.8889 156.508 28.6443 156.68 28.4008C157.356 27.4414 156.501 26.1843 155.281 26.3524C150.886 26.9578 145.59 27.7114 139.797 28.5862C123.778 31.0042 104.114 34.3212 89.1032 37.9554C74.2372 41.5546 55.5076 47.5056 40.3963 52.5968C37.3438 53.6252 34.4453 54.6164 31.7641 55.543ZM10.3384 91.7138C9.95045 91.8469 9.64358 92.1302 9.49958 92.491C6.921 98.9485 4.83337 105.628 3.27886 112.49C3.05172 113.493 4.09296 114.331 5.13294 113.993C17.966 109.822 32.1297 105.519 44.0388 102.635C59.5442 98.8812 79.6067 95.5061 95.6847 93.079C103.747 91.8621 110.849 90.8775 115.937 90.1968C118.482 89.8562 120.523 89.5918 121.931 89.4122C122.635 89.3223 123.18 89.2536 123.551 89.2074C123.618 89.1989 123.673 89.1554 123.692 89.0952C126.197 81.2859 129.787 73.1623 133.957 65.1268C134.456 64.1642 133.601 63.0663 132.464 63.2217C127.871 63.8504 122.187 64.6549 115.92 65.6011C99.9006 68.0191 80.2369 71.3361 65.2263 74.9706C50.3602 78.5698 31.6307 84.5207 16.5194 89.6117C14.3758 90.334 12.3082 91.0377 10.3384 91.7138ZM1.82668 125.328C1.31555 125.498 0.954201 125.923 0.895695 126.425C0.30374 131.505 0 136.665 0 141.891C0 144.419 0.0710669 146.931 0.211444 149.426C0.260756 150.303 1.20229 150.884 2.09357 150.595C14.5852 146.555 28.2107 142.439 39.7277 139.65C55.233 135.896 75.2956 132.521 91.3736 130.094C99.4355 128.877 106.538 127.892 111.626 127.212C114.17 126.871 116.212 126.607 117.62 126.427C117.738 126.412 117.827 126.321 117.833 126.21C118.257 117.499 119.128 108.941 120.641 101.113C120.814 100.216 119.999 99.4172 119.029 99.5454C118.517 99.6133 117.979 99.6849 117.416 99.7602C112.375 100.434 105.335 101.411 97.3488 102.616C81.3296 105.034 61.6659 108.351 46.6553 111.985C33.0373 115.282 16.1775 120.553 1.82668 125.328ZM2.47436 160.707C1.8371 160.915 1.44517 161.512 1.54071 162.134C2.70907 169.742 4.52626 177.155 6.93851 184.324C7.17601 185.03 7.99264 185.411 8.74614 185.175C18.9852 181.968 29.532 178.893 38.7328 176.665C54.2382 172.911 74.3007 169.536 90.3787 167.109C98.4406 165.892 105.543 164.907 110.631 164.227C113.176 163.886 115.217 163.622 116.625 163.442C116.723 163.43 116.818 163.418 116.91 163.406C117.646 163.312 118.183 162.709 118.145 162.018C117.717 154.356 117.451 146.092 117.516 137.734C117.523 136.923 116.755 136.293 115.891 136.406C115.049 136.516 114.117 136.64 113.105 136.775C108.063 137.45 101.024 138.425 93.0377 139.631C77.0185 142.049 57.3548 145.366 42.3445 149.001C30.2671 151.925 15.6399 156.401 2.47436 160.707ZM12.3397 194.245C11.564 194.487 11.1679 195.287 11.4801 195.991C11.9423 197.032 12.4174 198.067 12.9052 199.096C13.1319 199.574 13.6419 199.881 14.2036 199.881H120.12C120.978 199.881 121.642 199.181 121.537 198.389C121.307 196.635 121.034 194.468 120.741 191.956C120.166 187.033 119.511 180.776 118.942 173.696C118.908 173.269 118.494 172.956 118.037 173.014C116.649 173.192 114.63 173.453 112.11 173.79C107.069 174.465 100.029 175.441 92.0428 176.646C76.0236 179.064 56.3599 182.381 41.3493 186.015C32.5197 188.153 22.3274 191.121 12.3397 194.245ZM132.106 199.142C132.164 199.565 132.551 199.881 133.009 199.881H204.242C205.963 199.881 206.245 197.42 204.571 197.048C202.848 196.665 201.178 196.279 199.57 195.89C184.214 192.172 165.11 186.092 149.943 180.982C142.338 178.42 135.683 176.088 130.928 174.397C130.693 174.313 130.462 174.23 130.236 174.15C129.834 174.007 129.409 174.302 129.442 174.701C129.966 180.946 130.55 186.479 131.068 190.913C131.476 194.407 131.842 197.214 132.106 199.142ZM282.886 199.933C283.219 199.977 283.556 199.897 283.827 199.712C284.704 199.114 284.45 197.834 283.403 197.556C258.188 190.863 234.756 179.737 216.776 162.933C216.579 162.747 216.327 162.62 216.052 162.567C210.032 161.395 204.204 160.157 198.907 158.875C183.551 155.157 164.446 149.077 149.279 143.967C141.674 141.405 135.02 139.073 130.265 137.381C130.119 137.329 129.975 137.278 129.833 137.228C128.905 136.897 127.906 137.528 127.9 138.453C127.853 146.721 128.134 154.978 128.587 162.716C128.604 163.016 128.809 163.278 129.109 163.387C130.402 163.855 132.285 164.534 134.64 165.372C139.351 167.049 145.946 169.36 153.48 171.898C168.592 176.989 187.321 182.94 202.187 186.54C217.178 190.169 238.164 193.609 255.538 196.153C264.196 197.421 271.907 198.459 277.452 199.18C279.397 199.433 281.445 199.741 282.886 199.933ZM201.524 149.524C202.591 149.783 203.401 148.63 202.74 147.808C195.215 138.447 188.904 128.192 184.023 117.246C183.861 116.884 183.538 116.606 183.136 116.486C173.184 113.518 163.056 110.226 154.254 107.261C146.649 104.699 139.994 102.367 135.239 100.675C134.496 100.41 133.799 100.161 133.151 99.9297C132.332 99.6361 131.423 100.093 131.254 100.895C129.628 108.559 128.691 117.172 128.238 126.073C128.231 126.204 128.315 126.324 128.446 126.372C129.739 126.84 131.621 127.519 133.976 128.357C138.687 130.033 145.283 132.345 152.817 134.883C167.928 139.974 186.658 145.925 201.524 149.524ZM176.678 104.335C177.779 104.68 178.838 103.718 178.513 102.68C175.484 93.0093 173.533 82.9114 172.787 72.5066C172.749 71.9769 172.379 71.5175 171.842 71.3379C171.055 71.0745 170.277 70.8133 169.508 70.5544C161.904 67.9923 155.249 65.6602 150.494 63.9684C149.628 63.6605 148.825 63.3735 148.091 63.1103C147.414 62.8676 146.648 63.1355 146.315 63.7355C141.644 72.1531 137.562 80.6753 134.682 88.7883C134.447 89.4533 134.816 90.1703 135.518 90.4231C136.507 90.7788 137.658 91.1907 138.951 91.6509C143.662 93.3271 150.257 95.6382 157.791 98.1767C163.685 100.162 170.128 102.278 176.678 104.335ZM170.566 60.6316C171.488 60.9446 172.467 60.3149 172.491 59.4016C172.763 49.0154 174.235 38.9056 176.783 29.1881C176.954 28.5355 176.58 27.8645 175.906 27.6228C174.642 27.1695 173.583 26.787 172.758 26.4878C172.102 26.2501 171.595 26.065 171.25 25.939C171.117 25.8903 170.966 25.9334 170.885 26.043C168.939 28.6849 166.918 31.4865 164.863 34.4149C160.819 40.1785 156.679 46.3843 152.733 52.7897C152.3 53.4926 152.644 54.3881 153.458 54.678C153.701 54.765 153.951 54.8538 154.205 54.9443C158.392 56.434 164.067 58.4252 170.566 60.6316ZM178.759 18.2906C179.428 18.5309 180.175 18.2 180.424 17.5749C181.152 15.7482 182.07 13.8818 182.943 12.0627C183.141 11.6502 182.325 11.1467 182.035 11.5093C180.841 13.0041 179.535 14.6596 178.139 16.4566C177.644 17.0936 177.931 17.9927 178.719 18.2761C178.733 18.2809 178.746 18.2858 178.759 18.2906Z" fill="url(#paint0_linear_13_4637)" fill-opacity="0.08"/>
<defs>
<linearGradient id="paint0_linear_13_4637" x1="176.505" y1="-20.2918" x2="123.329" y2="189.354" gradientUnits="userSpaceOnUse">
<stop stop-color="#444444" stop-opacity="0.266667"/>
<stop offset="1" stop-color="#121212"/>
</linearGradient>
</defs>
</svg>
