<svg width="159" height="164" viewBox="0 0 159 164" fill="none" xmlns="http://www.w3.org/2000/svg">
<path d="M87.1252 47.8333C87.1252 45.0029 84.8306 42.7083 82.0002 42.7083C79.1697 42.7083 76.8752 45.0029 76.8752 47.8333V82C76.8752 83.7671 77.7855 85.4095 79.2839 86.346L99.7839 99.1585C102.184 100.659 105.346 99.929 106.846 97.5287C108.346 95.1285 107.617 91.9667 105.216 90.4665L87.1252 79.1595V47.8333Z" fill="white"/>
<path fill-rule="evenodd" clip-rule="evenodd" d="M82.0002 22.2083C48.9781 22.2083 22.2085 48.978 22.2085 82C22.2085 115.022 48.9781 141.792 82.0002 141.792C115.022 141.792 141.792 115.022 141.792 82C141.792 48.978 115.022 22.2083 82.0002 22.2083ZM32.4585 82C32.4585 54.6389 54.6391 32.4583 82.0002 32.4583C109.361 32.4583 131.542 54.6389 131.542 82C131.542 109.361 109.361 131.542 82.0002 131.542C54.6391 131.542 32.4585 109.361 32.4585 82Z" fill="white"/>
</svg>
