<svg width="364" height="256" viewBox="0 0 364 256" fill="none" xmlns="http://www.w3.org/2000/svg">
<g clip-path="url(#clip0_91_1101)">
<path fill-rule="evenodd" clip-rule="evenodd" d="M224.422 4.55965C225.25 3.53477 224.613 2.0562 223.249 1.87294C214.065 0.638778 204.674 0 195.123 0C144.902 0 99.1119 17.6602 64.5305 46.6728C63.0814 47.8883 64.4575 49.9869 66.3023 49.3968C81.2045 44.6306 97.0582 39.9017 110.625 36.6148C130.458 31.8094 156.12 27.4893 176.685 24.3827C186.997 22.8251 196.081 21.5646 202.59 20.6934C205.844 20.2576 208.456 19.919 210.257 19.6891C211.157 19.5741 211.855 19.4863 212.329 19.427L212.488 19.4071C212.63 19.3894 212.766 19.3399 212.885 19.2629L212.894 19.2569C212.983 19.1988 213.06 19.1264 213.123 19.0438C216.536 14.5448 219.481 10.7328 222.175 7.35701C222.963 6.37019 223.713 5.43667 224.422 4.55965ZM40.6294 71.095C40.3077 71.2064 40.0261 71.3999 39.8182 71.6539C32.9859 80.001 26.9125 88.9155 21.6941 98.3084C20.9421 99.6618 22.3613 101.147 23.9037 100.637C41.8895 94.683 62.8356 88.173 80.084 83.9938C99.9169 79.1885 125.579 74.8685 146.144 71.7618C156.456 70.2044 165.54 68.9438 172.049 68.0726C175.303 67.637 177.915 67.2981 179.716 67.0683C179.805 67.0571 179.94 67.0031 180.09 66.9348C180.608 66.6992 181.083 66.2992 181.362 65.8304C187.457 55.5948 193.544 46.1418 199.749 37.2918C199.969 36.9777 200.189 36.6647 200.409 36.353C201.274 35.125 200.18 33.516 198.62 33.731C192.997 34.506 186.224 35.4706 178.814 36.5903C158.324 39.6854 133.172 43.9312 113.972 48.583C94.9566 53.1899 70.9997 60.8071 51.6709 67.3239C47.7664 68.6403 44.059 69.909 40.6294 71.095ZM13.2238 117.394C12.7276 117.564 12.3351 117.927 12.1509 118.388C8.85264 126.654 6.18235 135.204 4.19399 143.987C3.90344 145.271 5.23529 146.343 6.56553 145.91C22.9803 140.573 41.097 135.064 56.3299 131.373C76.1628 126.568 101.825 122.248 122.39 119.141C132.702 117.583 141.787 116.323 148.295 115.452C151.549 115.016 154.161 114.677 155.962 114.448C156.862 114.333 157.56 114.245 158.034 114.186C158.119 114.175 158.19 114.119 158.214 114.042C161.418 104.046 166.011 93.6478 171.344 83.3623C171.983 82.1302 170.889 80.7249 169.435 80.9238C163.56 81.7285 156.289 82.7583 148.273 83.9694C127.783 87.0644 102.631 91.3102 83.4308 95.9623C64.4156 100.569 40.4587 108.186 21.1299 114.703C18.3881 115.627 15.7434 116.528 13.2238 117.394ZM2.3365 160.42C1.68272 160.638 1.22052 161.182 1.14568 161.824C0.388513 168.326 0 174.931 0 181.62C0 184.856 0.0909015 188.072 0.270457 191.266C0.333533 192.388 1.53785 193.131 2.67788 192.762C18.6558 187.591 36.0842 182.322 50.8156 178.752C70.6485 173.947 96.3105 169.627 116.876 166.521C127.188 164.963 136.272 163.702 142.78 162.831C146.035 162.395 148.647 162.057 150.448 161.827C150.598 161.808 150.713 161.69 150.72 161.549C151.262 150.399 152.376 139.444 154.312 129.424C154.533 128.277 153.49 127.254 152.25 127.418C151.595 127.505 150.907 127.597 150.186 127.693C143.738 128.556 134.734 129.806 124.519 131.349C104.028 134.444 78.8768 138.69 59.6767 143.341C42.2579 147.562 20.6926 154.308 2.3365 160.42ZM3.16495 205.705C2.34983 205.972 1.84852 206.735 1.97071 207.531C3.46517 217.27 5.78953 226.759 8.87503 235.935C9.17882 236.838 10.2234 237.326 11.1872 237.024C24.2839 232.92 37.7743 228.983 49.543 226.132C69.3759 221.326 95.0379 217.006 115.603 213.9C125.915 212.342 135 211.082 141.508 210.21C144.763 209.775 147.374 209.436 149.175 209.206C149.3 209.19 149.422 209.174 149.539 209.159C150.481 209.04 151.168 208.268 151.119 207.383C150.572 197.576 150.231 186.998 150.315 176.299C150.323 175.261 149.341 174.455 148.236 174.6C147.158 174.741 145.967 174.899 144.672 175.072C138.224 175.936 129.22 177.185 119.004 178.728C98.5142 181.823 73.3624 186.069 54.1627 190.721C38.7146 194.464 20.0049 200.193 3.16495 205.705ZM15.7836 248.633C14.7915 248.944 14.2848 249.968 14.6842 250.868C15.2753 252.201 15.8831 253.526 16.507 254.843C16.797 255.455 17.4493 255.848 18.1678 255.848H153.645C154.743 255.848 155.592 254.952 155.458 253.938C155.164 251.692 154.815 248.919 154.439 245.704C153.704 239.402 152.867 231.393 152.139 222.331C152.095 221.784 151.565 221.384 150.981 221.458C149.206 221.685 146.623 222.02 143.399 222.451C136.951 223.315 127.947 224.564 117.732 226.107C97.2416 229.202 72.0899 233.448 52.8898 238.1C41.5959 240.836 28.559 244.634 15.7836 248.633ZM168.977 254.902C169.051 255.443 169.546 255.848 170.132 255.848H261.245C263.446 255.848 263.807 252.698 261.667 252.222C259.463 251.732 257.326 251.237 255.27 250.739C235.628 245.98 211.191 238.198 191.792 231.658C182.064 228.378 173.552 225.393 167.47 223.228C167.169 223.12 166.874 223.015 166.585 222.912C166.071 222.728 165.527 223.107 165.569 223.617C166.24 231.61 166.986 238.694 167.648 244.368C168.17 248.84 168.639 252.433 168.977 254.902ZM361.839 255.914C362.265 255.971 362.696 255.868 363.042 255.631C364.164 254.865 363.839 253.227 362.501 252.872C330.248 244.305 300.276 230.063 277.278 208.554C277.025 208.317 276.703 208.153 276.352 208.085C268.652 206.586 261.197 205.001 254.422 203.359C234.78 198.601 210.343 190.819 190.943 184.278C181.215 180.998 172.703 178.014 166.622 175.848C166.435 175.782 166.251 175.716 166.069 175.651C164.882 175.228 163.604 176.035 163.597 177.219C163.537 187.803 163.896 198.372 164.475 208.276C164.497 208.66 164.759 208.995 165.143 209.135C166.797 209.735 169.205 210.604 172.217 211.677C178.243 213.822 186.679 216.781 196.316 220.03C215.645 226.546 239.602 234.164 258.617 238.771C277.792 243.416 304.634 247.819 326.858 251.076C337.933 252.699 347.795 254.028 354.888 254.951C357.376 255.274 359.995 255.668 361.839 255.914ZM257.769 191.391C259.134 191.722 260.169 190.247 259.324 189.195C249.699 177.212 241.626 164.086 235.383 150.075C235.177 149.612 234.762 149.255 234.249 149.102C221.52 145.303 208.564 141.09 197.306 137.294C187.578 134.014 179.066 131.029 172.984 128.864C172.033 128.525 171.142 128.206 170.314 127.91C169.265 127.534 168.103 128.12 167.886 129.146C165.807 138.956 164.608 149.98 164.029 161.374C164.02 161.541 164.128 161.695 164.295 161.756C165.948 162.356 168.357 163.225 171.369 164.297C177.395 166.443 185.831 169.401 195.468 172.65C214.797 179.167 238.754 186.784 257.769 191.391ZM225.989 133.548C227.396 133.991 228.751 132.759 228.336 131.431C224.461 119.052 221.965 106.127 221.011 92.8085C220.963 92.1305 220.49 91.5424 219.803 91.3126C218.796 90.9754 217.8 90.641 216.818 90.3096C207.09 87.0302 198.578 84.0451 192.497 81.8796C191.389 81.4854 190.362 81.118 189.423 80.7812C188.556 80.4706 187.577 80.8135 187.151 81.5815C181.176 92.3559 175.955 103.264 172.272 113.649C171.97 114.5 172.443 115.418 173.341 115.742C174.606 116.197 176.078 116.724 177.732 117.313C183.757 119.459 192.193 122.417 201.831 125.666C209.369 128.207 217.61 130.916 225.989 133.548ZM218.17 77.6084C219.35 78.009 220.602 77.203 220.633 76.034C220.98 62.7397 222.864 49.7991 226.122 37.3607C226.341 36.5255 225.863 35.6665 225.002 35.3572C223.384 34.777 222.029 34.2874 220.974 33.9044C220.136 33.6001 219.487 33.3631 219.046 33.2019C218.876 33.1396 218.682 33.1947 218.579 33.3351C216.089 36.7166 213.504 40.3027 210.876 44.051C205.703 51.4285 200.408 59.372 195.36 67.5708C194.806 68.4705 195.247 69.6167 196.287 69.9878C196.599 70.0992 196.918 70.2129 197.243 70.3287C202.598 72.2355 209.857 74.7842 218.17 77.6084ZM228.651 23.4119C229.506 23.7196 230.462 23.296 230.78 22.4959C231.711 20.1577 232.886 17.7686 234.002 15.4402C234.255 14.9122 233.211 14.2678 232.841 14.7318C231.314 16.6452 229.642 18.7643 227.857 21.0644C227.224 21.8798 227.592 23.0307 228.599 23.3934C228.616 23.3996 228.634 23.4058 228.651 23.4119Z" fill="url(#paint0_linear_91_1101)" fill-opacity="0.15"/>
</g>
<defs>
<linearGradient id="paint0_linear_91_1101" x1="225.768" y1="-25.9735" x2="157.66" y2="242.351" gradientUnits="userSpaceOnUse">
<stop stop-color="white" stop-opacity="0.266667"/>
<stop offset="1" stop-color="white"/>
</linearGradient>
<clipPath id="clip0_91_1101">
<rect width="364" height="256" fill="white"/>
</clipPath>
</defs>
</svg>
